<?xml version="1.0" encoding="UTF-8"?>
<svg xmlns="http://www.w3.org/2000/svg" version="1.1" viewBox="0 0 283.46 283.46">
  <defs>
    <style>
      .cls-1 {
        fill: #f6ba02;
      }
    </style>
  </defs>
  <!-- Generator: Adobe Illustrator 28.6.0, SVG Export Plug-In . SVG Version: 1.2.0 Build 709)  -->
  <g>
    <g id="Layer_1">
      <g>
        <polygon class="cls-1" points="102.75 164.94 94.05 149.87 75.73 149.95 84.39 164.94 65.98 164.94 57.28 149.87 38.96 149.95 47.62 164.94 29.6 164.94 20.9 149.87 2.58 149.95 55.05 240.83 55.08 240.81 68.67 264.35 99.17 264.35 156.56 164.94 102.75 164.94"/>
        <polygon class="cls-1" points="175.68 264.35 210.16 264.35 263.13 172.71 281 141.73 246.52 141.73 228.65 172.71 175.68 264.35"/>
        <polygon class="cls-1" points="175.68 19.11 210.16 19.11 263.13 110.75 281 141.73 246.52 141.73 228.65 110.75 175.68 19.11"/>
        <polygon class="cls-1" points="124.32 19.11 158.8 19.11 211.78 110.75 229.64 141.73 195.16 141.73 177.29 110.75 124.32 19.11"/>
        <polygon class="cls-1" points="124.32 264.35 158.8 264.35 211.78 172.71 229.64 141.73 195.16 141.73 177.29 172.71 124.32 264.35"/>
        <polygon class="cls-1" points="103.09 19.11 68.61 19.11 15.64 110.75 2.47 133.59 36.95 133.59 50.12 110.75 103.09 19.11"/>
        <polygon class="cls-1" points="73.32 19.11 107.8 19.11 160.77 110.75 178.63 141.73 144.15 141.73 126.29 110.75 73.32 19.11"/>
        <polygon class="cls-1" points="73.32 264.35 107.8 264.35 160.77 172.71 178.63 141.73 144.15 141.73 126.29 172.71 73.32 264.35"/>
      </g>
    </g>
  </g>
</svg>